<svg xmlns="http://www.w3.org/2000/svg" xmlns:xlink="http://www.w3.org/1999/xlink"><defs><clipPath id="clip0_308:377"><path fill="#fff" d="M0 0h64v64H0z"/></clipPath><clipPath id="clip0_308:401"><path fill="#fff" d="M0 0h64v64H0z"/></clipPath></defs><symbol id="akme__logo" viewBox="0 0 182 104"><path fill-rule="evenodd" clip-rule="evenodd" d="M30.759 41.248l-.881-9.582.495-3.207c.205 5.437.386 12.789.386 12.789zm-.07-1.273l.07 1.273-.07-1.273z"/><path fill-rule="evenodd" clip-rule="evenodd" d="M32.903 9.322l-.462 1.21-2.538 6.653s-1.813 3.652-1.516 4.073c.088.124.206.257.33.4.089.1.18.203.27.313l.273 2.972-1.258 8.99.303.042-1.299 9.281-.137.14a.52.52 0 00-.142-.016c-.35.01-.623.361-.61.784.01.323.181.594.417.7l.306 3.71s-.463.235-.342.876l-.08.177-1.206.198s-3.061 2.43-4.805 4.262c-2.62 2.444-2.165 4.126-1.495 5.027 1.537 2.422 9.064 9.523 9.064 9.523l-.002-.002.072.069-.07-1.027-.78-1.54.28-.008 2.629 2.516-.106-1.029-.745-1.533.296-.008 2.624 2.51v-1.061l-.834-1.496.256-.007 2.69 2.573-.08-1.055-.796-1.566.291-.007 2.684 2.568v-1.21l-.868-1.726.662.2.352-3.736s-.718-1.038-.731-1.52c-.004-.138.07-1.023.17-2.225.247-2.977.656-7.9.45-8.239-.29-.477-1.829-1.349-1.829-1.349s-2.964 2.293-5.993 5.548c-2.771 2.979-.526 5.29 1.434 7.31.182.186.362.371.535.554.763.806 1.75 1.845 2.687 2.828l-1.503.041-6.11-6.203 4.662 6.244-.691.02-6.009-6.101 4.552 6.14-.683.02-5.948-5.995 4.477 6.035-.937.026c-1.914-2.046-4.604-5.038-5.678-6.79a4.02 4.02 0 00-.215-.373 3.424 3.424 0 01-.162-.347c-.347-1.145.911-2.496 1.61-3.06l5.373-4.343-2.62 3.498 2.15-2.181.012-.012 1.095-1.11v-.003l1.032-1.048-.347-4.93.003-.008-.027-.42.092-.068.357-.263.305 5.08a.904.904 0 00-.032.661c.034.246-.072.685-.22 1.14l-3.085 4.119 3.257-3.303 2.022-2.014s-.644-.564-1.003-.828a.602.602 0 00-.252-.145l-.338-4.678a.613.613 0 00.24-.174l3.038 1.248.012 1.785h.003c-.051.866.455 1.606 1.151 1.669.713.064 1.355-.607 1.436-1.498L37.72 20.5c-.581-.223-1.01-.385-1.224-.466l-.018-.007a1.863 1.863 0 01-.106-.04l-.031-.011v-.002c-.708-.302-1.135-.926-.985-1.477.123.396.489.768.995.976l.002.002h.002l.003.001c.034.015.07.028.106.04 1.143.433 10.617 4.029 14.036 5.616 3.641 1.69 5.717 2.918 8.272 6.94 1.097 1.727 5.24 10.267 6.785 13.471l.614-8.883c-.488-1.197-1.272-3-2.447-5.392l-.233-.473-.011-.021c-.193-.39-.396-.793-.61-1.211-2.163-4.24-4.92-5.287-7.593-6.302l-.021-.008a58.855 58.855 0 01-.977-.378c-1.48-.592-4.877-1.744-8.338-2.866-3.157-1.022-6.365-2.018-8.22-2.538l-2.516-6.328 5.98 3.978-.126.193 7.717 5.075c2.022.598 4.138 1.237 6.129 2.013l-12.923-8.498-.126.192L35.6 9.932a1.724 1.724 0 000-.118c-.008-.331-.126-.623-.301-.809a.614.614 0 00-.456-.212l-.006-.015c-.007 0-.014.002-.02.003l-.012.002a18.383 18.383 0 00-.681.122c-.587.118-1.167.27-1.222.417zm.939 35.348c-.111-.246-.33-.41-.576-.404a.56.56 0 00-.375.165l-4.108-1.655a.763.763 0 00-.272-.392.554.554 0 00-.34-.109.583.583 0 00-.443.24l1.183-8.455.302.043 1.739-12.418c.237.283.466.598.555.955l.02.08.137 20.934 1.117.45a.57.57 0 01.407-.198c.35-.01.642.325.654.748v.016zm-3.894-23.796c.032-.77.144-1.494.277-2.256.052-.304.51-1.917 1.034-3.717a32.517 32.517 0 011.798-4.271l.329-.048c-.258.94-.64 2.348-.976 3.632-.143.645-.276 1.043-.501 1.672-.002.003-1.456 3.874-1.518 4.934-.17.003-.327.028-.443.054z"/><path d="M118.763 66.28l.992.072c.894.07 1.371.109 1.371.109l-1.371.108c-.28.019-.6.043-.959.069h-.012c-.787.059-1.761.13-2.903.2a522.41 522.41 0 01-6.019.35c-2.325.122-4.947.244-7.808.363l-2.255.086-2.208.085-1.55.05-3.225.106c-3.278.095-6.735.184-10.311.252-1.424.032-2.867.053-4.326.074h-.002a1539.334 1539.334 0 00-2.824.042l-1.07.015-2.804.025c-3.171.036-6.385.044-9.605.052h-.012l-1.766.004c-1.908-.005-3.815-.01-5.715-.017-1.222 0-2.442-.012-3.656-.024-.673-.007-1.344-.013-2.013-.017l-1.32-.013-1.484-.014-2.776-.04h-.013c-1.647-.024-3.274-.047-4.88-.081l.002-.014.413-1.32 1.01-.167 1.227-1.898a2053.872 2053.872 0 013.714-.054c.253.213.503.346.72.379.467.07 3.986.188 7.46.305 3.539.12 7.031.238 7.2.3.191.07 1.598.17 2.79.254.913.065 1.701.121 1.72.148.043.061 4.66 0 4.66 0s9.892-.727 16.342-1.216c2.517.056 4.965.122 7.319.19l1.275.042 3.5.114c1.542.06 3.033.116 4.463.17 1.927.08 3.744.162 5.437.245l.002-.258.005-.598c.002-.374-.011-.804-.025-1.289v-.002c-.008-.27-.017-.556-.023-.859a31.26 31.26 0 00-.051-.767v-.004c-.014-.189-.029-.383-.041-.58l-.049-.745-.006-.082a9.794 9.794 0 00-.061-.705l-.197-1.697-.053-.45-.207-1.239-.051.035.046-.066-.022-.13-.164-.98-.214-1.011-.133-.632-.126-.596-.018-.085-.07-.267-.142-.539c-.049-.18-.096-.363-.144-.547v-.002a23.309 23.309 0 00-.482-1.678l-.147-.466a26.744 26.744 0 00-.632-1.853l-.133-.362-.071-.191-.235-.638a18.88 18.88 0 00-.315-.769 45.37 45.37 0 01-.182-.432 45.05 45.05 0 01-.184-.437 25.808 25.808 0 00-.338-.785l-.588-1.224c-1.578-3.297-3.712-6.65-6.359-9.852l-.245-.303-.26-.293-.122-.136-.4-.452c-.085-.095-.17-.19-.254-.287-.264-.3-.528-.602-.816-.885l-.444-.457-.016-.017-.657-.677c-.246-.238-.497-.471-.749-.706a95.76 95.76 0 01-.642-.6v-.001h-.001l-.002-.002c-.127-.12-.255-.24-.388-.356l-.626-.531-.626-.537-.314-.27c-.066-.056-.135-.109-.205-.162l-.12-.094-.817-.633-.5-.39a6.846 6.846 0 00-.448-.326 604.695 604.695 0 00-.798-.56l-.124-.087c-1.858-1.265-3.806-2.47-5.886-3.472-.42-.224-.855-.418-1.292-.612a76.224 76.224 0 01-.657-.294c-.403-.181-.807-.364-1.225-.515l-.611-.24c-.339-.135-.678-.27-1.02-.398l-1.235-.416-.431-.145a49.061 49.061 0 00-6.89-1.629c-.375-.059-.753-.105-1.13-.152-.212-.026-.425-.052-.637-.08l-.442-.058a5.54 5.54 0 00-.44-.046l-.875-.065-.875-.067-.157-.013c-.093-.007-.186-.015-.285-.017l-2.31-.056-1.748.04c-.471 0-.94.037-1.41.074-.124.01-.248.02-.373.028-.934.05-1.86.172-2.784.294l-.76.098c-.959.155-1.912.338-2.857.546-1.257-.904-2.473-1.773-3.372-2.415a48.883 48.883 0 015.741-1.304l.75-.1c1.01-.138 2.02-.276 3.039-.335l.388-.03c.505-.042 1.01-.082 1.518-.086l1.672-.046.119-.003.06-.001.099.001 2.31.063c.098.002.202.011.306.02.058.004.117.01.174.013l.968.075.967.077c.162.01.32.03.478.052l.472.062c.217.03.433.057.65.085.413.053.827.106 1.239.172a1677.194 1677.194 0 011.871.343c.292.048.578.117.864.187l.065.015.922.222.92.223.907.267.906.267.452.134c.094.03.188.063.281.096l.164.057c2.39.772 4.674 1.784 6.862 2.904 2.194 1.113 4.248 2.427 6.178 3.83 1.94 1.395 3.718 2.94 5.357 4.548l.412.412c.268.268.534.534.794.804l.895.986.243.268c.293.31.562.639.83.966l.254.308.213.26.312.38.26.319.246.329.969 1.308.084.113c.052.07.104.14.153.212l.38.566.29.432c.512.736.966 1.498 1.414 2.248a146.982 146.982 0 00.313.524c.042.071.085.142.126.214l.209.392 13.84-16.306 5.146 5.79 11.62-11.201 3.414-3.037 21.406 19.335 10.274.88 13.442 12.289-16.246-7.964-4.584 5.58-13.451-13.076-10.019-9.036-17.516 17.357-4.309-11.888-11.978 13.255.264.557.35.738a5.947 5.947 0 00.11.232c.067.141.135.282.195.425l.126.305.001.003.007.017.139.338.537 1.304c.111.281.211.565.31.846v.001l.16.45.161.45c.099.274.197.546.283.82l.289.966.087.293c.212.664.372 1.327.529 1.974l.113.466c.159.594.271 1.186.381 1.763a46.717 46.717 0 01.607 3.925l1.699-2.41 28.526-22.355 18.298 17.8 2.323-2.98.665-.8 3.857 7.26 1.187-1.143 6.824 6.164 2.218-1.66 4.285 3.918-4.125-1.925-2.427 2.132-6.875-6.682-7.448 5.328 2.123-2.04.882-.857 2.455-2.366-3.067-6.053-9.801 11.64 6.57 5.837-7.92-3.536-4.819 4.048-13.645-12.685-14.787 10.115 4.215-3.873 1.751-1.627 9.017-8.313 13.548 11.704 4.401-3.151 1.187 1.053 5.4-6.932-16.221-15.314-30.233 20.3c.142 1.436.207 2.753.227 3.931.014.243.009.48.005.711l-.001.09-.01.613-.002.141-.004.217-.004.184c-.006.339-.012.66-.026.972-.022.306-.041.595-.058.867-.032.48-.059.908-.096 1.28l-.097.855a522.41 522.41 0 018.295.464c1.128.07 2.093.14 2.876.198h.006zM12.694 65.242a813.702 813.702 0 017.554-.323l2.388 2.407a725.245 725.245 0 01-12.307-.53c-2.324-.12-4.35-.237-6.02-.344a231.951 231.951 0 01-2.876-.196c-.374-.027-.708-.051-.997-.07-.894-.07-.773-.132-.773-.132s-.121-.012.773-.082l.999-.071h.005l.005-.001h.011l.002-.001h.001c.779-.056 1.735-.126 2.85-.194a516.284 516.284 0 018.302-.458l-.108-.96a56.942 56.942 0 01-.097-1.345l-.052-.797-.011-.505-.019-.85-.003-.231-.008-.514-.003-.208v-.001l-.002-.18.003-.092.01-.311.039-1.078.023-.648c.003-.241.024-.484.046-.732l.016-.192a2122.82 2122.82 0 01.082-.963c.012-.116.021-.233.03-.352.018-.215.036-.433.063-.652l.148-1.037.077-.537v-.005l.077-.535c.036-.238.083-.476.131-.717l.076-.388.221-1.142.01-.047.048-.245.028-.115.043-.175.006-.025.138-.561.296-1.2c.043-.191.1-.38.157-.57l.012-.038.045-.152.138-.461.211-.702.165-.548c.095-.276.194-.552.295-.831l.154-.429.23-.641.032-.09c.067-.185.133-.372.213-.554l.538-1.295.273-.658.113-.237V40.7l.197-.412.56-1.173v-.002l.07-.144c.141-.287.295-.57.45-.856l.248-.46.215-.4c.166-.31.333-.624.524-.926l.596-.989.202-.334.074-.122c.043-.07.086-.141.13-.21l.219-.325.213-.317.228-.337.445-.659.08-.118c.047-.071.095-.143.145-.212l.24-.322.97-1.298a49.537 49.537 0 014.732-5.237l-.552 4.214c-.81.832-1.58 1.68-2.31 2.542-2.648 3.179-4.797 6.499-6.38 9.77l-.588 1.216c-.086.17-.16.345-.234.52l-.036.086-.256.605-.184.433c-.108.254-.216.506-.318.758l-.44 1.182-.123.329-.094.252-.006.016c-.07.186-.14.372-.197.56a3659.957 3659.957 0 01-.63 1.981l-.074.279-.128.48v.002l-.162.612c-.032.128-.067.255-.1.382-.063.229-.124.455-.173.682l-.167.785-.053.254-.13.608-.084.395c-.044.212-.079.422-.113.63-.018.115-.037.23-.057.343l-.059.352v.004l-.098.58-.031.186a9.725 9.725 0 00-.104.712 4386.028 4386.028 0 01-.227 1.953v.003l-.014.119-.027.388-.03.473-.018.27c-.02.273-.04.536-.057.789l-.002.024-.039.538c-.007.293-.015.573-.023.838-.014.48-.027.912-.028 1.285l.005.66.002.305z"/><path d="M49.475 61.938l-4.599-.255a5.421 5.421 0 01-.119-.964l4.355-.248-4.35-.247c.017-.334.063-.655.134-.956l4.782-.263-4.627-.255a3.57 3.57 0 01.502-.947l4.865-.265-4.347-.238c.2-.135.415-.224.64-.255 0 0 4.23-.638 9.805-1.132 5.576-.495 6.854-.363 6.854-.363.043.002.1.008.167.017.513.071 1.692.341 2.935.637-2.863.338-4.683.612-4.683.612-.79.111-1.469.855-1.844 1.919l-7 .159-.203.465 7.117-.356a5.897 5.897 0 00-.225 1.64c0 .73.125 1.412.342 1.993v.047l.018-.001c.148.384.337.723.556 1l-6.44.44a1.252 1.252 0 01-.408-.014c-.981-.195-1.74-1.554-1.74-3.203 0-1.27.452-2.37 1.108-2.896l.08-.061c1.363-.714 6.793-1.702 6.793-1.702s-6.834.659-7.991 1.783c-.617.547-1.036 1.611-1.036 2.835 0 1.614.729 2.952 1.68 3.19-1.872-.029-5.698-.045-5.698-.045-.34 0-.66-.129-.946-.358l4.292-.246-4.767-.274a3.746 3.746 0 01-.463-.945l4.46-.248z"/><path fill-rule="evenodd" clip-rule="evenodd" d="M62.588 57.222a1.587 1.587 0 00-.674.27l4.58.25-5.126.28c-.211.277-.39.615-.53.997l4.876.268-5.038.278a5.634 5.634 0 00-.141 1.007l4.582.26-4.587.261c.012.354.055.695.125 1.016l4.844.269-4.7.26c.127.377.293.714.488.996l5.023.289-4.522.26c.3.24.64.376.997.376 0 0 4.03.018 6.003.047-1.003-.25-1.77-1.66-1.77-3.36 0-1.289.44-2.41 1.09-2.987 1.22-1.184 8.42-1.878 8.42-1.878s-5.72 1.042-7.156 1.793l-.085.065c-.692.553-1.168 1.711-1.168 3.05 0 1.737.8 3.17 1.834 3.375a1.329 1.329 0 00.43.013l4.882-.333.175-.012 14.948-1.02c.033.003.067.005.101.005.733 0 1.364-.691 1.644-1.682l-.947-.257 1.055-.257a4.39 4.39 0 00.046-.633 4.17 4.17 0 00-.207-1.315l-.72-.195.587-.143c-.326-.712-.857-1.175-1.458-1.175 0 0-2-.207-3.071-.39-.422-.073-1.538-.341-2.78-.639-1.86-.447-4.001-.96-4.5-.983 0 0-.15-.016-.563-.017-.832-.003-2.735.05-6.657.399-5.874.521-10.33 1.192-10.33 1.192zm17.802-.934l5.13 1.602-3.862-.773 1.508.643-3.228-.67-2.31-.22 2.762-.582zm-11.234 3.547l.261-.687 17.297-.376-17.558 1.063zm19.409-1.554c.204 0 .395.094.56.258l-.013-.007-.01-.006a.236.236 0 00-.066-.029.162.162 0 00-.034 0l-.034.002H88.939c-.667 0-1.208.954-1.208 2.131 0 .129-.007.251-.013.368-.017.287-.03.541.063.784-.223-.369-.363-.894-.363-1.477 0-1.118.513-2.024 1.147-2.024zm-19.291 4.545l-.192-.67 8.34-.175-8.148.845z"/><path d="M74.702 54.53v.666l-7.684.667-3.408-.71v-.624h11.092zM30.617 45.263l-1.876-.866.026.92 1.878.943-.028-.997zM60.052 45.275l-3.063.21 3.101.085-.038-.295zM84.971 43.99v1.104l-2.631-.046v-1.104l2.631.046z"/><path fill-rule="evenodd" clip-rule="evenodd" d="M38.352 22.594c3.408 1.314 8.474 3.3 10.779 4.37 3.64 1.69 5.716 2.919 8.271 6.94.413.65 1.349 2.45 2.45 4.639l.49 4.29-.305.035.792 6.953h-.184l-.333-2.55h-3.087l-.367-1.63-.367 1.63-2.691.665-.583 2.998 1.271-2.983 4.733.102-.466.455-.68 3.235 3.463.501-5.047-.093-3.274-.05 6.15.834 3.302.087.732 1.117h11.27l.866-1.354-1.882.037-.163.456-9.778.675-.563-.919 4.123.108-.611-.508 23.976-.41V50.69l-8.718-.403-.001-.022-.118-6.763 7.301.128.98 5.68v-5.663l-1.915-1.33-6.39-.205-.057-3.239 4.486.073 2.269 2.228-1.75-2.727-5.018-.303-.02-1.093c-.019-.674-.314-1.023-1.227-1.192l-4.579-.527-6.378.182c-.983.028-1.71.185-2.123.595-.214.212-.343.492-.38.858l-1.268 14.697.507.635-1.275-.02.122-1.808-2.642-5.362-.758.053.509 4.46h-.158l-.785-6.893-.304.035-.299-2.63a981.179 981.179 0 014.628 9.451l.14-2.027c-.872-1.934-3.643-8.02-6.118-12.872-2.434-4.77-6.253-7.573-9.225-8.761-2.245-.899-7.608-2.982-11.572-4.34l-.151 1.009zm28.337 28.28l14.916-.002v.002l8.118.056.36.734-20.294.091-3.27-.073.17-.807zm1.453-12.515c.095-.83.945-1.07 2.056-1.208l4.358-.241-1.111 8.528-2.394 1.692-.454-3.441-2.482 1.597-1.11 4.306 1.137-11.233zm8.958-1.527h.003l2.84.177c.43.039.64.268.697.808l.218 4.107.335 6.099-.794-3.998-6.14 3.906 1.18-9.155c.257-1.277.695-2.003 1.661-1.944zM23.462 91.278l.986 3.82h5.205l-5.606-21.825h-5.329L5.443 95.099h5.483l2.279-3.82h10.257zm-1.109-4.28h-6.592l4.62-7.764 1.972 7.764z"/><path d="M32.394 95.1l4.251-21.703h5.174l-1.848 9.385 11.52-9.385h6.993L45.177 84.218 54.726 95.1h-6.53l-8.717-9.812-1.91 9.812h-5.175zM71.205 87.458l-2.742-14.06h-7.146L57.067 95.1h4.774l3.172-16.231 3.08 16.353h3.45l9.55-16.445L77.888 95.1h5.02l4.251-21.703H79.43l-8.224 14.061zM88.176 95.1l4.251-21.703h18.111l-.831 4.25H96.77L96 81.588h7.731l-.862 4.341h-7.731l-.925 4.707h14.169l-.893 4.463H88.176z"/></symbol><symbol id="icon__arrow_down" viewBox="0 0 24 24"><path d="M12 19V5M17.001 13.999L12 19l-5.001-5.001" stroke="#fff" stroke-width="1.5" stroke-linecap="round" stroke-linejoin="round"/></symbol><symbol id="icon__arrow_left" viewBox="0 0 40 40"><path fill-rule="evenodd" clip-rule="evenodd" d="M23.914 10.252L22.5 8.838l-2.828 2.828 1.414 1.415L26.005 18H5.833v4h20.172l-4.92 4.919-1.413 1.414 2.828 2.829 1.414-1.415 6.92-6.919 1.414-1.414L33.662 20l-1.414-1.415-1.415-1.414-6.919-6.919z" fill="#fff"/></symbol><symbol id="icon__arrow_right" viewBox="0 0 40 40"><path fill-rule="evenodd" clip-rule="evenodd" d="M20.328 11.667l-1.414 1.414L13.995 18h20.172v4H13.995l4.92 4.918 1.413 1.414-2.828 2.829-1.414-1.414-6.92-6.92-1.414-1.414L6.338 20l1.414-1.414 8.334-8.333L17.5 8.837l2.828 2.829z" fill="#fff"/></symbol><symbol id="icon__collaborate"><path d="M8 14H3a1 1 0 010-2h5.09A6.006 6.006 0 0114 7h3a1 1 0 110 2h-3a4 4 0 00-4 4v7a1 1 0 11-2 0v-6zM56 50h5a1 1 0 010 2h-5.09A6.006 6.006 0 0150 57h-4a1 1 0 010-2h4a4 4 0 004-4v-7a1 1 0 012 0v6z" fill="#020A17"/><path d="M26.287 49H22a4 4 0 01-4-4V20.321A7.022 7.022 0 0021.929 15h4.89l2.212.83a5.16 5.16 0 004.749-.591c.076-.053.145-.11.214-.168A6.87 6.87 0 0134.08 15H42a4 4 0 014 4v2a1 1 0 002 0v-2a6.006 6.006 0 00-6-6h-6.412c.27-.632.41-1.313.412-2a1 1 0 00-.648-.937l-8-3A1 1 0 0027 7h-6a1 1 0 100 2h5.819l7.113 2.667a3.163 3.163 0 01-4.2 2.29L28 13.307V12a1 1 0 00-2 0v1h-4v-1a1 1 0 00-2 0v2a5.006 5.006 0 01-5 5 1 1 0 000 2 6.862 6.862 0 001-.079V33h-1a5.019 5.019 0 01-4.326-2.5.87.87 0 00-.052-.081A5 5 0 0110 28v-2a1 1 0 10-2 0v2a7 7 0 00.3 2H3a1 1 0 000 2h6.28A7.012 7.012 0 0015 35h1v10a6.006 6.006 0 006 6h4.287a1 1 0 000-2zM49.707 44.707A1 1 0 0149 45a5.006 5.006 0 00-4.998 5v2a1 1 0 01-2 0v-1h-4v1a1 1 0 01-2 0v-1.307l-1.733-.65a3.16 3.16 0 00-4.2 2.29L37.182 55H42a1 1 0 010 2h-5c-.12 0-.239-.021-.351-.063l-8-3A1 1 0 0128 53a5.159 5.159 0 016.97-4.83l2.212.83h4.889A7.017 7.017 0 0146 43.679V25a1 1 0 012 0v4h1a7.011 7.011 0 015.72 3H61a1 1 0 010 2h-5.3a7 7 0 01.3 2v2a1 1 0 01-2 0v-2a5 5 0 00-.622-2.419.7.7 0 01-.053-.081A5.015 5.015 0 0049 31h-1v12.079c.331-.05.665-.077 1-.079a1 1 0 01.707 1.707z" fill="#020A17"/></symbol><symbol id="icon__construction"><path fill-rule="evenodd" clip-rule="evenodd" d="M55.019 33H59a1 1 0 011 1v5.996a1 1 0 01-2 0v-5h-3.719a1 1 0 01-.961-.723 16.935 16.935 0 00-1.434-3.483 1 1 0 01.168-1.19l2.624-2.621-5.657-5.657-2.625 2.624a1 1 0 01-1.19.168 16.927 16.927 0 00-3.483-1.434 1 1 0 01-.723-.961V18h-8v3.719a1 1 0 01-.727.961c-1.21.347-2.379.828-3.483 1.434a1 1 0 01-1.19-.168l-2.621-2.624-5.657 5.657 2.624 2.625a1 1 0 01.168 1.19 16.924 16.924 0 00-1.434 3.483 1 1 0 01-.961.723H16v8h3.719a1 1 0 01.961.727c.347 1.21.828 2.379 1.434 3.483a1 1 0 01-.168 1.19l-2.624 2.621 5.657 5.657 2.625-2.624a1 1 0 011.19-.168 16.933 16.933 0 003.483 1.434 1 1 0 01.723.961V60h8.004v-3.719a1 1 0 01.723-.961 16.938 16.938 0 003.483-1.434 1 1 0 011.19.168l2.621 2.624 5.657-5.657-2.624-2.625a1 1 0 01-.168-1.19 16.938 16.938 0 001.434-3.483 1 1 0 01.961-.723H59a1 1 0 110 2h-3.981a19.04 19.04 0 01-1.031 2.5l2.812 2.813a1 1 0 010 1.415l-7.075 7.071a1 1 0 01-1.415 0l-2.81-2.811c-.808.403-1.643.747-2.5 1.031V61a1 1 0 01-1 1H32a1 1 0 01-1-1v-3.981a19.026 19.026 0 01-2.503-1.03l-2.81 2.811a1 1 0 01-1.415 0l-5.66-5.66-11.246 6.493.5.866a1 1 0 11-1.732 1l-1-1.732A1 1 0 015.5 58.4l5.351-3.086a2.999 2.999 0 01-.657-.775l-4-6.929a3 3 0 011.1-4.1l5.151-2.974L2.5 34.794a1 1 0 01-.366-1.366l4-6.928a1 1 0 011.366-.366l11.553 6.671c.268-.79.588-1.56.958-2.308l-2.811-2.81a1 1 0 010-1.415l4.582-4.583-3.933-3.933-1.414 1.415a1 1 0 01-1.414 0l-.708-.707-1.414 1.414.707.708a1 1 0 010 1.414l-2.828 2.831a1 1 0 01-1.414 0L2.293 17.76a1 1 0 010-1.414l2.828-2.828a1 1 0 011.414 0l.707.707 1.415-1.415-.707-.706a1 1 0 010-1.415l2.455-2.452a1 1 0 011.414 1.414L10.071 11.4l5.647 5.653 6.364-6.365-5.656-5.656-1.789 1.787a1 1 0 01-1.414-1.414l2.5-2.494a1 1 0 011.414 0l.763.763a7.91 7.91 0 018.4-.836l1.187.593a1 1 0 01-.187 1.86 5.99 5.99 0 00-4.064 3.711l.977.976a1 1 0 010 1.415l-.708.707 3.728 3.736 7.7-13.336a.999.999 0 011.367-.366l5.2 3a1 1 0 01.5.926l-.27 4.46a1 1 0 01-.739.907l-1.766.473.473 1.769a1 1 0 01-.707 1.225l-1.554.417.341.689H42a.987.987 0 01.846.5l1.637-1.639A8.988 8.988 0 0156.514 3.713a1 1 0 01.317 1.628l-5.242 5.241 3.536 3.536a1 1 0 01-1.414 1.414l-4.243-4.243a1 1 0 010-1.414l4.768-4.769a7 7 0 105.658 5.658l-2.308 2.307a1 1 0 11-1.414-1.414l3.487-3.488a1 1 0 011.628.317 8.991 8.991 0 01-9.921 12.354l5.433 5.435a1 1 0 010 1.415l-2.811 2.81c.403.808.747 1.643 1.031 2.5zM4.414 17.053l5.657 5.657 1.414-1.41-5.657-5.661-1.414 1.414zm4.242-1.414l2.829 2.828 1.415-1.414-2.829-2.829-1.415 1.415zm.442 13.728l-1.732-1-3 5.195L14 39.125v-5.124a1 1 0 011-1h.394l-1.1-.634-1.5 2.6a1 1 0 11-1.732-1l1.5-2.6-1.732-1-1.5 2.6a1 1 0 11-1.732-1l1.5-2.6zm5.913 17.545a1 1 0 00-.754-.34 1 1 0 00-.258 1.967 1 1 0 001.012-1.627zm5.001.588a19.012 19.012 0 01-1.031-2.5h-3.202a2.989 2.989 0 01-1.516 5.57 2.994 2.994 0 01-.053-5.986A.976.976 0 0114 44v-2.052L8.294 45.24a1 1 0 00-.365 1.364l4 6.93a.987.987 0 00.606.466 1 1 0 00.758-.1l3.868-2.231a.994.994 0 01.039-1.356l2.812-2.813zm1.701-40.012a8.015 8.015 0 012.9-3.188 5.933 5.933 0 00-5.283.8l2.383 2.388zM25.687 19.2l2.813 2.812a17.74 17.74 0 011.451-.64l-7.856-7.855-2.828 2.828 3.933 3.933 1.072-1.078a.998.998 0 011.415 0zm5.606-2.907A1 1 0 0132 16h3.543l-.443-.9a1 1 0 01.646-1.406l1.767-.473-.474-1.766a.997.997 0 01.707-1.225l2.036-.545.188-3.128-3.8-2.191L28.7 17.3l2.3 2.3V17a1 1 0 01.293-.707zM43 20.98c.857.284 1.692.628 2.5 1.031l2.523-2.52a8.875 8.875 0 01-2.634-2.71L43 19.172v1.809z" fill="#020A17"/><path d="M41.252 32.232a7.983 7.983 0 00-9.15.44 7.996 7.996 0 1011.666 2.076 1.001 1.001 0 111.691-1.066 10.022 10.022 0 11-3.141-3.141 1 1 0 11-1.066 1.691z" fill="#020A17"/></symbol><symbol id="icon__docs"><path fill-rule="evenodd" clip-rule="evenodd" d="M60.287 26.799a7.94 7.94 0 011.421 2.817 7.939 7.939 0 01-.777 6.135 7.553 7.553 0 01-.439.655 1.026 1.026 0 01-1.414.243.977.977 0 01-.237-1.374l.034-.046.022-.03c.105-.145.21-.29.303-.449a5.999 5.999 0 00-2.291-8.245 6.066 6.066 0 00-7.993 2.056A5.98 5.98 0 0048 31.667v.048a17.353 17.353 0 01-3 9.85l5 2.886a15.577 15.577 0 016-6.935 1 1 0 111.023 1.71 13.62 13.62 0 00-5.288 6.224l1.826 1.054a1 1 0 01.366 1.366l-1.5 2.6a5 5 0 011.83 6.83l-1 1.732a1 1 0 01-1.366.366l-.866-.5-1.5 2.6a1 1 0 01-1.366.366l-17.321-10a1 1 0 011-1.732l16.455 9.5 1-1.732-18.187-10.494a1 1 0 01-.366-1.366l1-1.732a5 5 0 016.83-1.83l1.5-2.6a1 1 0 011.367-.366l1.824 1.054a15.326 15.326 0 002.739-8.9V14h-9a1 1 0 01-1-1V4H4v7a1 1 0 11-2 0V3a1 1 0 011-1h34a1 1 0 01.707.293l10 10A1 1 0 0148 13v13.475a8.106 8.106 0 019.881-1.718 7.938 7.938 0 012.406 2.041zm-8.262 30.367l.5-.866-.001.006a3 3 0 00-1.1-4.1l-3.845-2.22a1 1 0 011-1.733l2.113 1.221 1-1.732-10.392-6-1 1.732 4.819 2.777a1 1 0 01-1 1.733l-6.547-3.78a3 3 0 00-4.1 1.1l-.5.866 19.053 10.996zM44.586 12L38 5.414V12h6.586z" fill="#020A17"/><path d="M41 60H4V15a1 1 0 10-2 0v46a1 1 0 001 1h38a1 1 0 000-2z" fill="#020A17"/><path fill-rule="evenodd" clip-rule="evenodd" d="M6.134 51.345a1 1 0 001.366.366l18.187-10.5 1 1.731L8.5 53.442a1 1 0 001 1.733l.642-.371c.119.397.36.747.688 1a1.925 1.925 0 002.376.008A1.97 1.97 0 0014.68 57.7a1.928 1.928 0 002.2-.9 1.966 1.966 0 002.081 1.182 1.926 1.926 0 001.687-1.673 1.972 1.972 0 002.378.294 1.93 1.93 0 00.918-2.192 1.975 1.975 0 002.31-.638 1.929 1.929 0 00.008-2.376 1.97 1.97 0 001.89-1.473 1.928 1.928 0 00-.9-2.2 1.984 1.984 0 00.661-3.18l.641-.37a1 1 0 00.366-1.366l-2-3.464a1 1 0 00-1.366-.366l-.642.37a1.958 1.958 0 00-.688-1 1.93 1.93 0 00-2.376-.009 1.988 1.988 0 00-3.694-.989.989.989 0 101.694 1.02 1.979 1.979 0 001.108 1.752 1.914 1.914 0 002.046-.2 1.919 1.919 0 00-.126.6L20.51 41.89a5.967 5.967 0 00-8.968 5.177l-2.37 1.369a1.778 1.778 0 00-.576-.172 1.98 1.98 0 001.2-1.7 1.915 1.915 0 00-.97-1.813 1.98 1.98 0 001.753-1.108 1.918 1.918 0 00-.2-2.046 1.98 1.98 0 002.043-.354 1.915 1.915 0 00.6-1.967 1.988 1.988 0 003.35-1.138.99.99 0 10-1.958-.3 1.973 1.973 0 00-2.378-.293 1.93 1.93 0 00-.918 2.191 1.97 1.97 0 00-2.309.639 1.928 1.928 0 00-.008 2.375 1.97 1.97 0 00-1.9 1.48 1.929 1.929 0 00.9 2.2 1.97 1.97 0 00-1.182 2.085c.056.411.246.792.54 1.085l-.659.381a1 1 0 00-.366 1.364zm15.18-2.99A3.986 3.986 0 0116.738 51l4.574-2.645zm5.142-2.466a1.98 1.98 0 00-1.194 1.694 1.915 1.915 0 00.97 1.814 1.98 1.98 0 00-1.753 1.108 1.913 1.913 0 00.2 2.046 1.98 1.98 0 00-2.042.354 1.916 1.916 0 00-.6 1.968 1.98 1.98 0 00-2.023-.456 1.915 1.915 0 00-1.3 1.589 1.98 1.98 0 00-1.694-1.194 1.913 1.913 0 00-1.814.97 1.98 1.98 0 00-1.106-1.753 1.915 1.915 0 00-2.046.2 1.98 1.98 0 00.126-.6l2.37-1.368a5.964 5.964 0 008.962-5.175l2.37-1.368c.18.089.374.147.574.171zm-10.93-2.277a4 4 0 012.787-.454L13.74 45.8a4 4 0 011.787-2.188zM25 7a1 1 0 00-1-1h-8a1 1 0 00-1 1v3h-3a1 1 0 00-1 1v3H8a1 1 0 00-1 1v12a1 1 0 001 1h24a1 1 0 001-1v-8a1 1 0 00-1-1h-4a1 1 0 000 2h3v2h-2a1 1 0 000 2h2v2h-6V7zm-12 9h10v2H13v-2zm10-6h-2V8h2v2zm-6-2h2v2h-2V8zm-4 4h10v2H13v-2zm-4 4h2v10H9V16zm4 4h10v6h-2v-3a1 1 0 00-1-1h-4a1 1 0 00-1 1v3h-2v-6zm4 6v-2h2v2h-2z" fill="#020A17"/><path d="M15.293 31.707A1 1 0 0116 30h26a1 1 0 010 2H16a1 1 0 01-.707-.293zM43 35a1 1 0 00-1-1H23a1 1 0 000 2h19a1 1 0 001-1zM29.293 38.293A1 1 0 0130 38h7a1 1 0 010 2h-7a1 1 0 01-.707-1.707zM36 27a1 1 0 001 1h6a1 1 0 000-2h-6a1 1 0 00-1 1zM43.707 23.707A1 1 0 0143 24h-4a1 1 0 010-2h4a1 1 0 01.707 1.707zM8 32h4a1 1 0 000-2H8a1 1 0 000 2zM12 36H8a1 1 0 010-2h4a1 1 0 010 2z" fill="#020A17"/></symbol><symbol id="icon__dozer"><path d="M52.594 1.996a3.958 3.958 0 00-3.659 5.57l.913 2.051-5.848.51a1 1 0 00.174 1.992l7.928-.69a3.59 3.59 0 013.789 2.694L42.664 15.68a6.035 6.035 0 00-4.746 3.443l-1.2 2.592-2.142-1.53A1 1 0 0034 20h-3.635l3.18-5.3a4.011 4.011 0 013.084-1.927l3.562-.31a1 1 0 10-.173-1.992l-3.563.31a6.016 6.016 0 00-4.625 2.89L28.033 20H20a1 1 0 00-1 1v8a1 1 0 102 0v-7h2v3a5.006 5.006 0 005 5h2a1 1 0 001-1v-7h2.68L40 26.516v6.761l-3.488-1.994A3.01 3.01 0 0135 28.68V25a1 1 0 10-2 0v3.68a5.013 5.013 0 002.52 4.34L40 35.58v2.6l-9.463-6.022A1 1 0 0030 32H14v-6a1 1 0 00-1-1h-1v-.86a4.987 4.987 0 00-2.227-4.16l-1.218-.812a1 1 0 00-1.11 1.664l1.22.813A2.991 2.991 0 0110 24.14V25H9a1 1 0 00-1 1v6H6a1 1 0 00-.707.293l-3 3A1 1 0 002 36v9a1 1 0 001 1h5a1 1 0 100-2H4v-7.586L6.414 34h23.3L40 40.549V44h-5v-3a1 1 0 00-1-1H22a1 1 0 00-1 1v3h-9a1 1 0 100 2h3v2h-3a7 7 0 100 14h12a1 1 0 001-1v-3h6v2h-3a1 1 0 100 2h8a7 7 0 100-14h-3v-2h8a1 1 0 001-1V26a1 1 0 00-.42-.814l-3.2-2.288 1.356-2.935a4.024 4.024 0 013.164-2.3l14.22-1.675A1 1 0 0058 15a5.583 5.583 0 00-6.045-5.564l-1.191-2.682A1.957 1.957 0 0152.553 4a1.946 1.946 0 011.547.756l5.865 7.545-2.643 25.53A6.916 6.916 0 0054.037 37h-.181l-.735-17.469a1.011 1.011 0 00-1.04-.957 1 1 0 00-.958 1.041L51.853 37H50a1 1 0 100 2h4.037a4.963 4.963 0 011.844 9.57l-3.488 1.4a7.927 7.927 0 00-1.686-8.671 1 1 0 00-1.414 1.414 5.916 5.916 0 01.736 7.443l-.861 1.293a1 1 0 001.2 1.485l6.251-2.5a6.947 6.947 0 002.56-11.14L62 12.1a1 1 0 00-.205-.717l-6.117-7.856a3.958 3.958 0 00-3.084-1.53zM25 22h4v6h-1a3 3 0 01-3-3v-3zm-15 5h2v5h-2v-5zm-1.03 9A1 1 0 008 37v4a1 1 0 102 0v-4a1 1 0 00-1.03-1zm4 0a1 1 0 00-.97 1v4a1 1 0 102 0v-4a1 1 0 00-1.03-1zm4 0a1 1 0 00-.97 1v4a1 1 0 102 0v-4a1 1 0 00-1.03-1zM22 36a1 1 0 100 2h7a1 1 0 100-2h-7zm1 6h10v2H23v-2zm-6 4h14v2H17v-2zm-4 4h2v2h-2v-2zm4 0h2v2h-2v-2zm4 0h2v2h-2v-2zm4 0h2v2h-2v-2zm4 0h2v2h-2v-2zm4 0h2v2h-2v-2zm-22 .1v2.084a2.741 2.741 0 00-.285.117l-1.469-1.469A4.97 4.97 0 0111 50.1zm26 0a4.97 4.97 0 011.754.732l-1.469 1.469a2.741 2.741 0 00-.285-.117V50.1zM7.832 52.246l1.469 1.469a2.746 2.746 0 00-.117.285H7.1a4.961 4.961 0 01.732-1.754zm32.336 0A4.96 4.96 0 0140.9 54h-2.084a2.741 2.741 0 00-.117-.285l1.469-1.469zM11.988 54H12a1 1 0 11-.012 0zm2.828 0h18.368a2.809 2.809 0 000 2H14.816a2.809 2.809 0 000-2zm21.213 0A1 1 0 0136 56a1 1 0 11.03-2zM7.1 56h2.085c.033.097.072.192.117.285l-1.469 1.469A4.961 4.961 0 017.1 56zm31.717 0H40.9a4.96 4.96 0 01-.732 1.754l-1.469-1.469c.045-.093.084-.188.117-.285zm-28.101 1.7c.093.044.188.083.285.116V59.9a4.97 4.97 0 01-1.754-.732l1.469-1.469zm26.57 0l1.469 1.468A4.969 4.969 0 0137 59.9v-2.084c.097-.033.192-.072.285-.117zM13 58h2v2h-2v-2zm4 0h2v2h-2v-2zm4 0h2v2h-2v-2zm12 0h2v2h-2v-2z" fill="#020A17"/></symbol><symbol id="icon__satellite"><g clip-path="url(#clip0_308:377)" fill="#020A17"><path fill-rule="evenodd" clip-rule="evenodd" d="M63.28 9.297L54.704.72a2.453 2.453 0 00-3.471 0L34.38 17.571c-.96.96-.959 2.512 0 3.471l2.898 2.898-1.518 1.518-4.548-4.543c-.271-.27-.782-.549-1.268-.623l-3.104-.475-1.878-1.878a1.506 1.506 0 00-2.13 0l-4.888 4.887a1.508 1.508 0 000 2.13l1.878 1.878.476 3.105c.075.491.355 1 .623 1.268l4.542 4.547-1.523 1.524-2.898-2.898a2.453 2.453 0 00-3.47 0L.718 51.232c-.959.96-.96 2.51 0 3.47l4.753 4.754a.938.938 0 001.326-1.326l-4.753-4.753a.579.579 0 010-.82l2.064-2.063 9.397 9.397-2.064 2.064a.578.578 0 01-.82 0l-.73-.732a.938.938 0 00-1.327 1.326l.732.731c.96.96 2.511.96 3.47 0L29.62 46.428a2.453 2.453 0 000-3.47l-2.105-2.105 1.521-1.52c1.366 1.366 2.241 2.243 2.837 2.84l1.388 1.389 1.43 1.43a1.98 1.98 0 002.8 0l1.75-1.75 1.29 1.29a10.202 10.202 0 001.132 11.487c.566.67 1.59.718 2.215.092l5.456-5.456 1.526 1.526a.938.938 0 001.326-1.326l-1.526-1.526 5.456-5.456a1.506 1.506 0 00-.092-2.216 10.105 10.105 0 00-3.274-1.852.938.938 0 00-.605 1.775c.852.29 1.642.712 2.355 1.257L42.843 54.495c-2.109-2.763-2.292-6.614-.359-9.576l.008-.01.005-.007a8.32 8.32 0 012.41-2.41l.017-.012.011-.009c1-.65 2.127-1.076 3.33-1.25a.938.938 0 00-.267-1.855c-1.231.177-2.398.57-3.463 1.158l-1.288-1.288 1.75-1.75a1.979 1.979 0 000-2.8l-1.14-1.14-1.884-1.882-2.636-2.633 1.516-1.515 2.104 2.104c.96.96 2.512.96 3.471 0l2.726-2.726h.001l.001-.002 11.396-11.396h.001l.002-.002 2.725-2.726c.96-.96.96-2.512 0-3.47zM20.7 25.06L19.53 23.89l4.366-4.365 1.167 1.167L20.7 25.06zm1.001 1.65l5.015-5.014 1.67.256-6.43 6.429-.255-1.67zm-6.868 31.856l-9.397-9.397 2.474-2.473 9.396 9.396-2.473 2.474zm3.8-3.8L9.233 45.37l2.474-2.474 9.397 9.397-2.474 2.474zm3.799-3.799l-9.397-9.397 2.473-2.473 9.397 9.397-2.473 2.473zm5.863-6.682a.58.58 0 010 .819l-2.064 2.064-9.397-9.397 2.064-2.064a.579.579 0 01.82 0l8.577 8.578zm-2.104-4.756l-.924-.925 1.522-1.522.924.925-1.522 1.522zm15.416 3.428l-1.04-1.04 1.356-1.354L42.96 41.6c-.495.413-.923.835-1.355 1.355zm2.066-6.944c.02.02.03.045.03.074 0 .029-.01.054-.03.074l-7.506 7.506a.105.105 0 01-.149 0l-.856-.855 7.655-7.655.856.856zM41.49 33.83l-7.654 7.653L22.677 30.31l7.64-7.639 11.173 11.16zm-3.479-6.125l-.925-.923 1.517-1.517.925.924-1.517 1.516zm7.092.588a.579.579 0 01-.82 0l-8.577-8.578a.579.579 0 010-.819l2.064-2.064 9.397 9.397-2.064 2.064zm3.39-3.39l-9.397-9.397 2.473-2.473 9.397 9.397-2.474 2.473zm3.799-3.8l-9.397-9.396 2.474-2.474 9.396 9.397-2.473 2.474zm3.8-3.799L46.694 7.91l2.473-2.474 9.397 9.397-2.474 2.473zm5.863-5.863l-2.064 2.064-9.397-9.397 2.064-2.064a.579.579 0 01.82 0l8.577 8.578a.579.579 0 010 .82z"/><path d="M55.937 52.345a.937.937 0 00-1.843-.343c-.097.52-.346.992-.72 1.366a2.597 2.597 0 01-1.367.72.937.937 0 10.343 1.843 4.464 4.464 0 002.35-1.236 4.463 4.463 0 001.237-2.35zM57.488 53.128a.937.937 0 011.844.343 7.287 7.287 0 01-2.02 3.835 7.288 7.288 0 01-3.836 2.02.935.935 0 01-1.093-.75.937.937 0 01.75-1.093 5.422 5.422 0 002.853-1.502 5.42 5.42 0 001.502-2.853z"/></g></symbol><symbol id="icon__vagon"><g clip-path="url(#clip0_308:401)" fill="#020A17"><path fill-rule="evenodd" clip-rule="evenodd" d="M41 27h-4v8h9a1 1 0 001-1v-6a1 1 0 00-1-1h-1a1 1 0 010-2h1a3 3 0 013 3v6a3 3 0 01-3 3H26a3 3 0 01-3-3v-6a3 3 0 013-3h15a1 1 0 010 2zm-16 1a1 1 0 011-1h9v8h-9a1 1 0 01-1-1v-6z"/><path fill-rule="evenodd" clip-rule="evenodd" d="M42 16v1h5.972a7 7 0 016.479 4.35l7.177 17.543c.246.601.372 1.244.372 1.893V49h5a1 1 0 010 2h-1v6a1 1 0 01-2 0v-6H49.236a3 3 0 01-2.683-1.658l-.895-1.79a1 1 0 00-.894-.552H25.236a1 1 0 00-.894.553l-.895 1.789A3 3 0 0120.764 51H17v2h1a1 1 0 010 2h-8a1 1 0 010-2h1v-2H8a4 4 0 01-4-4V21a4 4 0 014-4h10v-1a3 3 0 013-3h18a3 3 0 013 3zm-22 0a1 1 0 011-1h18a1 1 0 011 1v1H20v-1zm40 24.786V49H49.236a1 1 0 01-.894-.553l-.895-1.789A3 3 0 0044.764 45H25.236a3 3 0 00-2.683 1.658l-.895 1.79a1 1 0 01-.894.552H20V28a3 3 0 00-3-3h-6a3 3 0 00-3 3v2a1 1 0 002 0v-2a1 1 0 011-1h6a1 1 0 011 1v7h-8v-1a1 1 0 00-2 0v15a2 2 0 01-2-2V21a2 2 0 012-2h39.972a5 5 0 014.628 3.107l7.177 17.544A3 3 0 0160 40.786zM18 37v12h-8V37h8zm-5 14h2v2h-2v-2z"/><path d="M30 54a1 1 0 11-2 0 1 1 0 012 0zM41 55a1 1 0 100-2 1 1 0 000 2z"/><path fill-rule="evenodd" clip-rule="evenodd" d="M29 49a5 5 0 104.9 6h2.2a5.002 5.002 0 009.9-1 5 5 0 00-9.9-1h-2.2a5.002 5.002 0 00-4.9-4zm-3 5a3 3 0 116 0 3 3 0 01-6 0zm15-3a3 3 0 100 6 3 3 0 000-6z"/></g></symbol><view id="icon__select-view" viewBox="0 0 22 22"/>
<use xlink:href="#icon__select" width="22" height="22" x="0" y="0"/>
</svg>